<svg xmlns="http://www.w3.org/2000/svg" viewBox="0 0 514 93.87"><defs><style>.cls-1{fill:#01206f}</style></defs><g id="Слой_2" data-name="Слой 2"><g id="Слой_1-2" data-name="Слой 1"><path d="M105.78 3.59h9.36v36.38h-9.36zM178.69 39.97h-9.36V15.02l-15.12 24.95h-6.76l-15.12-24.95v24.95h-9.36V3.59h12.63l15.23 25.67 15.23-25.67h12.63v36.38zM242.84 39.97h-9.35V15.02l-15.13 24.95h-6.76l-15.12-24.95v24.95h-9.35V3.59h12.63l15.22 25.67 15.23-25.67h12.63v36.38zM251.22 3.59h9.36v36.38h-9.36zM290.11 20.48h23.08V40h-6.91l-.42-5.72c-3.43 3.75-8.89 6.24-16.63 6.24-13.41 0-21.62-6.65-21.62-18.71S275.82 3.1 290.79 3.1c14.55 0 21.83 5.66 22.4 14.71h-9.51c-.52-2.76-3-6.86-12.89-6.86C278.63 10.92 277 17.62 277 22s1.71 11.28 13.82 11.28c9 0 12.68-4 12.89-6.71h-13.6zM356.38 29.16L363.09 40h-11l-5.87-9.72h-15.09V40h-9.36V3.59h28.59c8.26 0 13.92 5.25 13.92 13.36 0 5.92-3 10.29-7.9 12.21m-25.13-6.76h16.63c2.8 0 7.17 0 7.17-5.45s-4.37-5.51-7.17-5.51h-16.63zM401.35 32.23h-21.78l-3.9 7.77h-10.29l18.76-36.41h12.63L415.59 40h-10.35zm-3.49-7l-7.38-14.73-7.43 14.76zM465.59 3.59v36.38h-12.74l-24.79-27.29v27.29h-9.35V3.59h12.68l24.84 27.34V3.59h9.36zM514 11.44h-17.67v28.53h-9.35V11.44H469.3V3.59H514v7.85zM105.78 55.08h9.36v36.38h-9.36zM169.85 55.08v36.38h-12.73l-24.79-27.28v27.28h-9.36V55.08h12.69l24.84 27.34V55.08h9.35zM221.56 55.08l-18.71 36.38h-12.79l-18.71-36.38h10.5l14.61 29.47 14.6-29.47h10.5zM233.65 62.51v7.38h29.1v6.76h-29.1v7.38h29.1v7.43h-38.46V55.08h38.46v7.43h-29.1zM278.83 78.94c0 3.84 3.11 5.61 15 5.61 9.83 0 12.79-1.09 12.79-4s-2.08-3.53-13.88-4.11c-15.85-.72-22.14-3.22-22.14-11.38 0-8 8.16-10.55 21.78-10.55s22 3.43 22 12.42H305c0-4-4-5-13.72-5-9.2 0-11.38.89-11.38 3.59s2.18 3.33 12.78 4c14.35.78 23.23 1.56 23.23 10.76 0 9.72-9.2 11.69-22.66 11.69-14.91 0-23.8-2.55-23.8-13zM361.31 62.93h-17.67v28.53h-9.36V62.93h-17.67v-7.85h44.7v7.85z"/><path class="cls-1" d="M38.71 46.94L12.67 20.95 0 33.63l13.31 13.31L0 60.24l12.67 12.68 26.04-25.98z"/><path class="cls-1" d="M19.17 14.46l32.48 32.48-32.48 32.47 14.46 14.46 46.99-46.93L33.63 0 19.17 14.46z"/></g></g></svg>